<?xml version="1.0" encoding="UTF-8"?>
<svg width="169px" height="53px" viewBox="0 0 169 53" version="1.1" xmlns="http://www.w3.org/2000/svg" xmlns:xlink="http://www.w3.org/1999/xlink">
    <!-- Generator: Sketch 59.1 (86144) - https://sketch.com -->
    <title>LOGO</title>
    <desc>Created with Sketch.</desc>
    <defs>
        <polygon id="path-1" points="0.365810294 0.348 9.77122059 0.348 9.77122059 13.8516 0.365810294 13.8516"></polygon>
        <polygon id="path-3" points="0.0185823529 0.6912 11.2358912 0.6912 11.2358912 4.88844 0.0185823529 4.88844"></polygon>
    </defs>
    <g id="ACCEPTED" stroke="none" stroke-width="1" fill="none" fill-rule="evenodd">
        <g id="leocode_www_v01h_expertise" transform="translate(-30.000000, -27.000000)">
            <g id="LOGO" transform="translate(30.000000, 26.000000)">
                <g id="Group" transform="translate(55.050578, 18.000000)">
                    <polygon id="Fill-1" fill="#000000" points="8.88379412 11.96832 8.88379412 14.36112 0 14.36112 0 0.85752 2.68372059 0.85752 2.68372059 11.96832"></polygon>
                    <polygon id="Fill-2" fill="#000000" points="16.8422824 3.23196 16.8422824 6.40356 23.0423559 6.40356 23.0423559 8.69916 16.8422824 8.69916 16.8422824 11.96796 23.5640912 11.96796 23.5640912 14.36076 14.1573706 14.36076 14.1573706 0.85716 23.5640912 0.85716 23.5640912 3.23196"></polygon>
                    <path d="M31.5219838,7.57092 C31.5219838,10.17852 33.3182779,12.06612 35.7899691,12.06612 C38.2819103,12.06612 40.0782044,10.17852 40.0782044,7.57092 C40.0782044,5.00292 38.2819103,3.15372 35.7899691,3.15372 C33.3182779,3.15372 31.5219838,5.00292 31.5219838,7.57092 M42.8012338,7.59012 C42.8012338,11.61852 39.8649838,14.53692 35.7899691,14.53692 C31.7149544,14.53692 28.7787044,11.61852 28.7787044,7.59012 C28.7787044,3.58212 31.7149544,0.66372 35.7899691,0.66372 C39.8649838,0.66372 42.8012338,3.58212 42.8012338,7.59012" id="Fill-3" fill="#000000"></path>
                    <path d="M54.8540338,14.53656 C50.7790191,14.53656 47.8427691,11.61816 47.8427691,7.58976 C47.8427691,3.58296 50.7790191,0.66336 54.8540338,0.66336 C58.5037985,0.66336 61.2470779,2.97936 61.7497544,6.36456 L58.9874162,6.36456 C58.5431074,4.47696 56.9790926,3.15456 54.8540338,3.15456 C52.3632838,3.15456 50.5860485,5.00256 50.5860485,7.57056 C50.5860485,10.17816 52.3632838,12.06576 54.8540338,12.06576 C56.9600338,12.06576 58.5431074,10.72296 58.9874162,8.81616 L61.7497544,8.81616 C61.2661368,12.20136 58.5037985,14.53656 54.8540338,14.53656" id="Fill-5" fill="#000000"></path>
                    <path d="M69.5338544,7.57092 C69.5338544,10.17852 71.3301485,12.06612 73.8018397,12.06612 C76.2937809,12.06612 78.090075,10.17852 78.090075,7.57092 C78.090075,5.00292 76.2937809,3.15372 73.8018397,3.15372 C71.3301485,3.15372 69.5338544,5.00292 69.5338544,7.57092 M80.8131044,7.59012 C80.8131044,11.61852 77.8768544,14.53692 73.8018397,14.53692 C69.726825,14.53692 66.7917662,11.61852 66.7917662,7.59012 C66.7917662,3.58212 69.726825,0.66372 73.8018397,0.66372 C77.8768544,0.66372 80.8131044,3.58212 80.8131044,7.59012" id="Fill-7" fill="#000000"></path>
                    <path d="M95.3383103,7.57092 C95.3383103,5.02212 93.6194426,3.23172 91.1465603,3.23172 L89.1775456,3.23172 L89.1775456,11.96892 L91.1465603,11.96892 C93.6194426,11.96892 95.3383103,10.15812 95.3383103,7.57092 M98.0815897,7.59012 C98.0815897,11.55972 95.2227662,14.36172 91.1858691,14.36172 L86.4926338,14.36172 L86.4926338,0.85812 L91.1858691,0.85812 C95.2227662,0.85812 98.0815897,3.64092 98.0815897,7.59012" id="Fill-9" fill="#000000"></path>
                    <g id="Group-13" transform="translate(103.375893, 0.509160)">
                        <mask id="mask-2" fill="white">
                            <use xlink:href="#path-1"></use>
                        </mask>
                        <g id="Clip-12"></g>
                        <polygon id="Fill-11" fill="#000000" mask="url(#mask-2)" points="3.04953088 2.7228 3.04953088 5.8944 9.24960441 5.8944 9.24960441 8.19 3.04953088 8.19 3.04953088 11.4588 9.77133971 11.4588 9.77133971 13.8516 0.365810294 13.8516 0.365810294 0.348 9.77133971 0.348 9.77133971 2.7228"></polygon>
                    </g>
                </g>
                <g id="Group-35" transform="translate(0.000000, 0.509160)">
                    <polygon id="Fill-14" fill="#000000" points="24.1969632 9.02868 26.3946838 10.53828 27.4953309 10.54908 29.7347426 12.02148 28.6805515 9.12108"></polygon>
                    <polygon id="Fill-16" fill="#000000" points="34.4033206 10.61304 34.4033206 9.37224 32.3902324 9.37224 34.0412029 11.48904"></polygon>
                    <polygon id="Fill-18" fill="#000000" points="19.5485162 10.11156 5.70466324 13.96356 0.000119117647 24.75276 3.72135441 23.02236 3.72135441 32.23956 10.3180897 37.86396 8.14895735 26.51916"></polygon>
                    <g id="Group-22" transform="translate(17.867647, 0.000000)">
                        <mask id="mask-4" fill="white">
                            <use xlink:href="#path-3"></use>
                        </mask>
                        <g id="Clip-21"></g>
                        <polygon id="Fill-20" fill="#000000" mask="url(#mask-4)" points="11.2358912 4.88844 6.33300882 0.69084 0.0185823529 1.43484 7.12633235 4.88844"></polygon>
                    </g>
                    <path d="M22.1705338,20.073 L23.1067985,26.475 L34.281225,38.703 C35.6475044,36.2694 36.6385632,34.5234 36.6385632,34.5234 L22.1705338,20.073 Z" id="Fill-23" fill="#000000"></path>
                    <path d="M13.0454074,34.79004 L14.7428338,43.14204 L19.7612603,49.26924 L21.5813779,52.79964 C22.6522456,50.88324 23.6409221,49.12524 24.3484809,47.87004 L13.0454074,34.79004 Z" id="Fill-25" fill="#000000"></path>
                    <polygon id="Fill-27" fill="#000000" points="33.8772971 15.84276 34.0154735 17.37396 29.8642235 19.57236 27.6962824 18.67236 29.0816206 20.98236 33.8475176 19.25076 35.5663853 20.72316 35.9916353 19.20756 34.88265 17.34756 35.0565618 15.99756 36.0821647 15.21516 36.2953853 13.92276 32.1489 13.92276"></polygon>
                    <polygon id="Fill-29" fill="#000000" points="21.8412926 6.38676 18.7525721 3.90516 13.2636309 3.90516 4.72289559 11.14956"></polygon>
                    <polygon id="Fill-31" fill="#000000" points="30.4779176 22.31364 32.1276971 24.51564 34.0121382 22.31364"></polygon>
                    <polygon id="Fill-33" fill="#000000" points="28.5713206 48.08616 31.8006 42.35856 18.6631147 27.70176 19.3956882 16.08936 12.3451147 27.78816 27.1490559 44.39136"></polygon>
                </g>
            </g>
        </g>
    </g>
</svg>